<mxfile host="Electron" modified="2023-09-06T14:55:00.893Z" agent="Mozilla/5.0 (Windows NT 10.0; Win64; x64) AppleWebKit/537.36 (KHTML, like Gecko) draw.io/21.6.8 Chrome/114.0.5735.289 Electron/25.5.0 Safari/537.36" etag="qQ3YoPjuE0WNnfmKFMwF" version="21.6.8" type="device">
  <diagram id="C5RBs43oDa-KdzZeNtuy" name="Page-1">
    <mxGraphModel dx="1418" dy="828" grid="1" gridSize="10" guides="1" tooltips="1" connect="1" arrows="1" fold="1" page="1" pageScale="1" pageWidth="827" pageHeight="1169" math="0" shadow="0">
      <root>
        <mxCell id="WIyWlLk6GJQsqaUBKTNV-0" />
        <mxCell id="WIyWlLk6GJQsqaUBKTNV-1" parent="WIyWlLk6GJQsqaUBKTNV-0" />
        <mxCell id="VsposLOwV8tIR5Gb7Egs-24" style="edgeStyle=orthogonalEdgeStyle;rounded=0;orthogonalLoop=1;jettySize=auto;html=1;entryX=0.5;entryY=0;entryDx=0;entryDy=0;" parent="WIyWlLk6GJQsqaUBKTNV-1" source="WIyWlLk6GJQsqaUBKTNV-3" target="VsposLOwV8tIR5Gb7Egs-0" edge="1">
          <mxGeometry relative="1" as="geometry" />
        </mxCell>
        <mxCell id="YC-hGs0FgNyM7vdsSo9Y-31" style="edgeStyle=orthogonalEdgeStyle;rounded=0;orthogonalLoop=1;jettySize=auto;html=1;entryX=0.5;entryY=1;entryDx=0;entryDy=0;" parent="WIyWlLk6GJQsqaUBKTNV-1" source="WIyWlLk6GJQsqaUBKTNV-3" target="YC-hGs0FgNyM7vdsSo9Y-21" edge="1">
          <mxGeometry relative="1" as="geometry" />
        </mxCell>
        <mxCell id="WIyWlLk6GJQsqaUBKTNV-3" value="静息心率60~80bpm&lt;br&gt;上限为80bpm" style="rounded=1;whiteSpace=wrap;html=1;fontSize=12;glass=0;strokeWidth=1;shadow=0;" parent="WIyWlLk6GJQsqaUBKTNV-1" vertex="1">
          <mxGeometry x="370" y="310" width="120" height="40" as="geometry" />
        </mxCell>
        <mxCell id="VsposLOwV8tIR5Gb7Egs-15" value="" style="edgeStyle=orthogonalEdgeStyle;rounded=0;orthogonalLoop=1;jettySize=auto;html=1;" parent="WIyWlLk6GJQsqaUBKTNV-1" source="VsposLOwV8tIR5Gb7Egs-0" target="VsposLOwV8tIR5Gb7Egs-13" edge="1">
          <mxGeometry relative="1" as="geometry" />
        </mxCell>
        <mxCell id="VsposLOwV8tIR5Gb7Egs-0" value="敌人进入玩家角色的检测范围" style="rounded=1;whiteSpace=wrap;html=1;" parent="WIyWlLk6GJQsqaUBKTNV-1" vertex="1">
          <mxGeometry x="370" y="380" width="120" height="40" as="geometry" />
        </mxCell>
        <mxCell id="VsposLOwV8tIR5Gb7Egs-18" style="edgeStyle=orthogonalEdgeStyle;rounded=0;orthogonalLoop=1;jettySize=auto;html=1;entryX=1;entryY=0.5;entryDx=0;entryDy=0;" parent="WIyWlLk6GJQsqaUBKTNV-1" source="VsposLOwV8tIR5Gb7Egs-1" target="WIyWlLk6GJQsqaUBKTNV-3" edge="1">
          <mxGeometry relative="1" as="geometry">
            <Array as="points">
              <mxPoint x="510" y="532" />
              <mxPoint x="510" y="330" />
            </Array>
          </mxGeometry>
        </mxCell>
        <mxCell id="VsposLOwV8tIR5Gb7Egs-20" style="edgeStyle=orthogonalEdgeStyle;rounded=0;orthogonalLoop=1;jettySize=auto;html=1;exitX=0;exitY=0.5;exitDx=0;exitDy=0;entryX=0;entryY=0.5;entryDx=0;entryDy=0;" parent="WIyWlLk6GJQsqaUBKTNV-1" source="VsposLOwV8tIR5Gb7Egs-1" target="VsposLOwV8tIR5Gb7Egs-13" edge="1">
          <mxGeometry relative="1" as="geometry" />
        </mxCell>
        <mxCell id="VsposLOwV8tIR5Gb7Egs-1" value="&lt;font style=&quot;font-size: 10px;&quot;&gt;敌人是否还在检测范围内&lt;/font&gt;" style="rhombus;whiteSpace=wrap;html=1;" parent="WIyWlLk6GJQsqaUBKTNV-1" vertex="1">
          <mxGeometry x="367.5" y="500" width="125" height="65" as="geometry" />
        </mxCell>
        <mxCell id="VsposLOwV8tIR5Gb7Egs-17" value="" style="edgeStyle=orthogonalEdgeStyle;rounded=0;orthogonalLoop=1;jettySize=auto;html=1;" parent="WIyWlLk6GJQsqaUBKTNV-1" source="VsposLOwV8tIR5Gb7Egs-13" target="VsposLOwV8tIR5Gb7Egs-1" edge="1">
          <mxGeometry relative="1" as="geometry" />
        </mxCell>
        <mxCell id="VsposLOwV8tIR5Gb7Egs-13" value="&lt;p style=&quot;line-height: 120%; font-size: 10px;&quot;&gt;角色进入紧张状态&lt;br&gt;心率提高到80-110bpm，距离越近越高&lt;br&gt;&lt;/p&gt;" style="rounded=1;whiteSpace=wrap;html=1;" parent="WIyWlLk6GJQsqaUBKTNV-1" vertex="1">
          <mxGeometry x="370" y="440" width="120" height="40" as="geometry" />
        </mxCell>
        <mxCell id="VsposLOwV8tIR5Gb7Egs-19" value="否" style="text;html=1;align=center;verticalAlign=middle;resizable=0;points=[];autosize=1;strokeColor=none;fillColor=none;" parent="WIyWlLk6GJQsqaUBKTNV-1" vertex="1">
          <mxGeometry x="500" y="410" width="40" height="30" as="geometry" />
        </mxCell>
        <mxCell id="VsposLOwV8tIR5Gb7Egs-21" value="是" style="text;html=1;align=center;verticalAlign=middle;resizable=0;points=[];autosize=1;strokeColor=none;fillColor=none;" parent="WIyWlLk6GJQsqaUBKTNV-1" vertex="1">
          <mxGeometry x="340" y="490" width="40" height="30" as="geometry" />
        </mxCell>
        <mxCell id="YC-hGs0FgNyM7vdsSo9Y-33" style="edgeStyle=orthogonalEdgeStyle;rounded=0;orthogonalLoop=1;jettySize=auto;html=1;entryX=0.5;entryY=1;entryDx=0;entryDy=0;" parent="WIyWlLk6GJQsqaUBKTNV-1" source="YC-hGs0FgNyM7vdsSo9Y-2" target="YC-hGs0FgNyM7vdsSo9Y-32" edge="1">
          <mxGeometry relative="1" as="geometry" />
        </mxCell>
        <mxCell id="YC-hGs0FgNyM7vdsSo9Y-2" value="角色进入“战斗或逃跑&lt;br&gt;”状态" style="rounded=1;whiteSpace=wrap;html=1;" parent="WIyWlLk6GJQsqaUBKTNV-1" vertex="1">
          <mxGeometry x="370" y="110" width="120" height="40" as="geometry" />
        </mxCell>
        <mxCell id="YC-hGs0FgNyM7vdsSo9Y-19" style="edgeStyle=orthogonalEdgeStyle;rounded=0;orthogonalLoop=1;jettySize=auto;html=1;entryX=1;entryY=0.5;entryDx=0;entryDy=0;" parent="WIyWlLk6GJQsqaUBKTNV-1" source="YC-hGs0FgNyM7vdsSo9Y-16" target="YC-hGs0FgNyM7vdsSo9Y-2" edge="1">
          <mxGeometry relative="1" as="geometry" />
        </mxCell>
        <mxCell id="YC-hGs0FgNyM7vdsSo9Y-16" value="使用了肾上腺素等药物" style="rounded=1;whiteSpace=wrap;html=1;" parent="WIyWlLk6GJQsqaUBKTNV-1" vertex="1">
          <mxGeometry x="550" y="115" width="130" height="30" as="geometry" />
        </mxCell>
        <mxCell id="YC-hGs0FgNyM7vdsSo9Y-27" style="edgeStyle=orthogonalEdgeStyle;rounded=0;orthogonalLoop=1;jettySize=auto;html=1;entryX=0.5;entryY=1;entryDx=0;entryDy=0;" parent="WIyWlLk6GJQsqaUBKTNV-1" source="YC-hGs0FgNyM7vdsSo9Y-21" target="YC-hGs0FgNyM7vdsSo9Y-22" edge="1">
          <mxGeometry relative="1" as="geometry" />
        </mxCell>
        <mxCell id="YC-hGs0FgNyM7vdsSo9Y-21" value="检测血量" style="rounded=1;whiteSpace=wrap;html=1;" parent="WIyWlLk6GJQsqaUBKTNV-1" vertex="1">
          <mxGeometry x="370" y="250" width="120" height="30" as="geometry" />
        </mxCell>
        <mxCell id="YC-hGs0FgNyM7vdsSo9Y-24" style="edgeStyle=orthogonalEdgeStyle;rounded=0;orthogonalLoop=1;jettySize=auto;html=1;entryX=0.5;entryY=1;entryDx=0;entryDy=0;" parent="WIyWlLk6GJQsqaUBKTNV-1" source="YC-hGs0FgNyM7vdsSo9Y-22" target="YC-hGs0FgNyM7vdsSo9Y-2" edge="1">
          <mxGeometry relative="1" as="geometry" />
        </mxCell>
        <mxCell id="YC-hGs0FgNyM7vdsSo9Y-29" style="edgeStyle=orthogonalEdgeStyle;rounded=0;orthogonalLoop=1;jettySize=auto;html=1;" parent="WIyWlLk6GJQsqaUBKTNV-1" source="YC-hGs0FgNyM7vdsSo9Y-22" edge="1">
          <mxGeometry relative="1" as="geometry">
            <mxPoint x="430" y="240" as="targetPoint" />
            <Array as="points">
              <mxPoint x="345" y="200" />
              <mxPoint x="345" y="240" />
              <mxPoint x="430" y="240" />
            </Array>
          </mxGeometry>
        </mxCell>
        <mxCell id="YC-hGs0FgNyM7vdsSo9Y-22" value="是否高于阈值" style="rhombus;whiteSpace=wrap;html=1;" parent="WIyWlLk6GJQsqaUBKTNV-1" vertex="1">
          <mxGeometry x="365" y="180" width="130" height="40" as="geometry" />
        </mxCell>
        <mxCell id="YC-hGs0FgNyM7vdsSo9Y-25" value="否" style="text;html=1;align=center;verticalAlign=middle;resizable=0;points=[];autosize=1;strokeColor=none;fillColor=none;" parent="WIyWlLk6GJQsqaUBKTNV-1" vertex="1">
          <mxGeometry x="420" y="150" width="40" height="30" as="geometry" />
        </mxCell>
        <mxCell id="YC-hGs0FgNyM7vdsSo9Y-30" value="是" style="text;html=1;align=center;verticalAlign=middle;resizable=0;points=[];autosize=1;strokeColor=none;fillColor=none;" parent="WIyWlLk6GJQsqaUBKTNV-1" vertex="1">
          <mxGeometry x="310" y="208" width="40" height="30" as="geometry" />
        </mxCell>
        <mxCell id="YC-hGs0FgNyM7vdsSo9Y-38" style="edgeStyle=orthogonalEdgeStyle;rounded=0;orthogonalLoop=1;jettySize=auto;html=1;entryX=1;entryY=0.5;entryDx=0;entryDy=0;" parent="WIyWlLk6GJQsqaUBKTNV-1" source="YC-hGs0FgNyM7vdsSo9Y-32" target="YC-hGs0FgNyM7vdsSo9Y-37" edge="1">
          <mxGeometry relative="1" as="geometry" />
        </mxCell>
        <mxCell id="YC-hGs0FgNyM7vdsSo9Y-32" value="状态心率快速变为130~160" style="rounded=1;whiteSpace=wrap;html=1;" parent="WIyWlLk6GJQsqaUBKTNV-1" vertex="1">
          <mxGeometry x="370" y="60" width="120" height="30" as="geometry" />
        </mxCell>
        <mxCell id="YC-hGs0FgNyM7vdsSo9Y-39" style="edgeStyle=orthogonalEdgeStyle;rounded=0;orthogonalLoop=1;jettySize=auto;html=1;entryX=0;entryY=0.5;entryDx=0;entryDy=0;" parent="WIyWlLk6GJQsqaUBKTNV-1" source="YC-hGs0FgNyM7vdsSo9Y-37" target="YC-hGs0FgNyM7vdsSo9Y-21" edge="1">
          <mxGeometry relative="1" as="geometry">
            <Array as="points">
              <mxPoint x="280" y="265" />
            </Array>
          </mxGeometry>
        </mxCell>
        <mxCell id="YC-hGs0FgNyM7vdsSo9Y-42" value="" style="edgeStyle=orthogonalEdgeStyle;rounded=0;orthogonalLoop=1;jettySize=auto;html=1;" parent="WIyWlLk6GJQsqaUBKTNV-1" source="YC-hGs0FgNyM7vdsSo9Y-37" target="YC-hGs0FgNyM7vdsSo9Y-41" edge="1">
          <mxGeometry relative="1" as="geometry" />
        </mxCell>
        <mxCell id="YC-hGs0FgNyM7vdsSo9Y-37" value="&lt;font style=&quot;font-size: 10px;&quot;&gt;是否使用药物&lt;/font&gt;" style="rhombus;whiteSpace=wrap;html=1;" parent="WIyWlLk6GJQsqaUBKTNV-1" vertex="1">
          <mxGeometry x="230" y="55" width="100" height="40" as="geometry" />
        </mxCell>
        <mxCell id="YC-hGs0FgNyM7vdsSo9Y-40" value="否" style="text;html=1;align=center;verticalAlign=middle;resizable=0;points=[];autosize=1;strokeColor=none;fillColor=none;" parent="WIyWlLk6GJQsqaUBKTNV-1" vertex="1">
          <mxGeometry x="240" y="145" width="40" height="30" as="geometry" />
        </mxCell>
        <mxCell id="YC-hGs0FgNyM7vdsSo9Y-43" style="edgeStyle=orthogonalEdgeStyle;rounded=0;orthogonalLoop=1;jettySize=auto;html=1;exitX=0.5;exitY=0;exitDx=0;exitDy=0;" parent="WIyWlLk6GJQsqaUBKTNV-1" source="YC-hGs0FgNyM7vdsSo9Y-41" edge="1">
          <mxGeometry relative="1" as="geometry">
            <mxPoint x="210" y="74.98" as="targetPoint" />
            <mxPoint x="130" y="49.980000000000004" as="sourcePoint" />
            <Array as="points">
              <mxPoint x="130" y="30" />
              <mxPoint x="210" y="30" />
            </Array>
          </mxGeometry>
        </mxCell>
        <mxCell id="YC-hGs0FgNyM7vdsSo9Y-45" style="edgeStyle=orthogonalEdgeStyle;rounded=0;orthogonalLoop=1;jettySize=auto;html=1;entryX=0;entryY=0.5;entryDx=0;entryDy=0;exitX=0.5;exitY=1;exitDx=0;exitDy=0;" parent="WIyWlLk6GJQsqaUBKTNV-1" source="YC-hGs0FgNyM7vdsSo9Y-41" target="YC-hGs0FgNyM7vdsSo9Y-21" edge="1">
          <mxGeometry relative="1" as="geometry">
            <mxPoint x="60" y="110" as="sourcePoint" />
            <Array as="points">
              <mxPoint x="130" y="265" />
            </Array>
          </mxGeometry>
        </mxCell>
        <mxCell id="YC-hGs0FgNyM7vdsSo9Y-41" value="&lt;font style=&quot;font-size: 10px;&quot;&gt;药物是否到期&lt;/font&gt;" style="rhombus;whiteSpace=wrap;html=1;" parent="WIyWlLk6GJQsqaUBKTNV-1" vertex="1">
          <mxGeometry x="80" y="55" width="100" height="40" as="geometry" />
        </mxCell>
        <mxCell id="YC-hGs0FgNyM7vdsSo9Y-44" value="否" style="text;html=1;align=center;verticalAlign=middle;resizable=0;points=[];autosize=1;strokeColor=none;fillColor=none;" parent="WIyWlLk6GJQsqaUBKTNV-1" vertex="1">
          <mxGeometry x="130" y="8" width="40" height="30" as="geometry" />
        </mxCell>
        <mxCell id="YC-hGs0FgNyM7vdsSo9Y-46" value="是" style="text;html=1;align=center;verticalAlign=middle;resizable=0;points=[];autosize=1;strokeColor=none;fillColor=none;" parent="WIyWlLk6GJQsqaUBKTNV-1" vertex="1">
          <mxGeometry x="100" y="128" width="40" height="30" as="geometry" />
        </mxCell>
        <mxCell id="YC-hGs0FgNyM7vdsSo9Y-47" value="进入战斗或逃跑状态" style="shape=document;whiteSpace=wrap;html=1;boundedLbl=1;" parent="WIyWlLk6GJQsqaUBKTNV-1" vertex="1">
          <mxGeometry x="740" y="100" width="120" height="80" as="geometry" />
        </mxCell>
        <mxCell id="YC-hGs0FgNyM7vdsSo9Y-48" value="紧张状态" style="shape=document;whiteSpace=wrap;html=1;boundedLbl=1;" parent="WIyWlLk6GJQsqaUBKTNV-1" vertex="1">
          <mxGeometry x="740" y="380" width="120" height="80" as="geometry" />
        </mxCell>
      </root>
    </mxGraphModel>
  </diagram>
</mxfile>
